<?xml version="1.0" standalone="no"?><!DOCTYPE svg PUBLIC "-//W3C//DTD SVG 1.1//EN" "http://www.w3.org/Graphics/SVG/1.1/DTD/svg11.dtd"><svg t="1543821075905" class="icon" style="" viewBox="0 0 1024 1024" version="1.1" xmlns="http://www.w3.org/2000/svg" p-id="4328" xmlns:xlink="http://www.w3.org/1999/xlink" width="64" height="64"><defs><style type="text/css"></style></defs><path d="M510.360663 995.620649c-65.880453 0-129.801275-12.906961-189.984982-38.362726-58.121745-24.582885-110.315478-59.772338-155.13322-104.59008-44.817742-44.817742-80.007195-97.012498-104.59008-155.13322C35.195593 637.349893 22.288632 573.429071 22.288632 507.548618S35.195593 377.747343 60.651358 317.563636c24.582885-58.121745 59.772338-110.315478 104.59008-155.13322 44.817742-44.817742 97.011474-80.007195 155.13322-104.59008C380.560412 32.384571 444.48021 19.476587 510.360663 19.476587c65.880453 0 129.801275 12.906961 189.984982 38.362726 58.121745 24.582885 110.316501 59.772338 155.134243 104.59008s80.007195 97.011474 104.59008 155.13322c25.455765 60.183707 38.362726 124.104529 38.362726 189.984982 0 54.641481-8.968256 108.297518-26.653033 159.477154-17.086144 49.447179-41.961694 95.650477-73.93285 137.327692-0.923022 1.231037-8.829086 11.700483-16.885576 20.427238-7.039323 7.622608-18.924002 8.098445-26.547633 1.061169-7.623631-7.0383-8.098445-18.924002-1.061169-26.547633 7.04751-7.632841 14.410198-17.450441 14.482853-17.547655l0.140193-0.185218c29.538757-38.487569 52.514027-81.152275 68.290339-126.807081 16.317641-47.222511 24.592095-96.750531 24.592095-147.205667 0-60.824297-11.908214-119.819946-35.395138-175.34761-22.688745-53.642734-55.1736-101.822037-96.553033-143.201469s-89.559758-73.864288-143.201469-96.553033c-55.527664-23.485901-114.523313-35.394115-175.34761-35.394115S390.539694 68.959581 335.013053 92.446505c-53.642734 22.688745-101.82306 55.1736-143.201469 96.553033-41.379433 41.379433-73.864288 89.558735-96.553033 143.201469-23.485901 55.527664-35.394115 114.523313-35.394115 175.34761 0 60.82532 11.908214 119.819946 35.394115 175.348634 22.688745 53.642734 55.1736 101.822037 96.553033 143.200446 41.378409 41.379433 89.558735 73.864288 143.201469 96.553033 55.527664 23.485901 114.523313 35.394115 175.34761 35.394115 73.450872 0 146.31846-18.057261 210.747865-52.225455 5.979178-3.400446 79.410608-44.440142 147.889235-49.625234 10.343579-0.788969 19.36914 6.968715 20.150946 17.315364 0.783853 10.345626-6.968715 19.368116-17.315364 20.150946-61.535495 4.660136-131.614573 44.511773-132.315538 44.914956l-0.536212 0.295735C669.085688 975.996706 590.029144 995.620649 510.360663 995.620649z" p-id="4329"></path><path d="M333.23557 434.651354c-29.252231 0-53.05024-23.799032-53.05024-53.051263s23.798009-53.05024 53.05024-53.05024 53.051263 23.798009 53.051263 53.05024S362.487801 434.651354 333.23557 434.651354zM333.23557 366.123608c-8.53335 0-15.476483 6.942109-15.476483 15.476483s6.942109 15.476483 15.476483 15.476483 15.476483-6.943133 15.476483-15.476483S341.769944 366.123608 333.23557 366.123608z" p-id="4330"></path><path d="M675.086355 434.651354c-29.254278 0-53.055356-23.799032-53.055356-53.051263s23.801079-53.05024 53.055356-53.05024c29.252231 0 53.05024 23.798009 53.05024 53.05024S704.338586 434.651354 675.086355 434.651354zM675.086355 366.123608c-8.53642 0-15.480576 6.942109-15.480576 15.476483s6.944156 15.476483 15.480576 15.476483c8.53335 0 15.47546-6.943133 15.47546-15.476483S683.619706 366.123608 675.086355 366.123608z" p-id="4331"></path><path d="M506.870166 810.44316c-92.593861 0-179.688475-40.871873-238.950184-112.137986-6.634094-7.977695-5.544273-19.822464 2.432399-26.456558 7.978718-6.635117 19.823488-5.544273 26.457582 2.433422 52.101635 62.653969 128.665405 98.587366 210.060203 98.587366 43.143613 0 84.407412-9.763364 122.646318-29.018917 36.483936-18.372439 68.971861-45.25367 93.951789-77.734432 6.327102-8.223289 18.120706-9.764388 26.346041-3.439332 8.224312 6.326079 9.764388 18.120706 3.438309 26.346041-28.398794 36.927027-65.342194 67.491137-106.836237 88.38705C602.886987 799.328008 555.937698 810.44316 506.870166 810.44316z" p-id="4332"></path></svg>